<?xml version="1.0" encoding="UTF-8" standalone="no"?>
<!-- Created with Inkscape (https://www.inkscape.org/) -->

<svg
   version="1.1"
   id="svg2"
   width="4000"
   height="2400"
   viewBox="0 0 4000 2400"
   sodipodi:docname="25273819_na_feb_10.eps"
   xmlns:inkscape="https://www.inkscape.org/namespaces/inkscape"
   xmlns:sodipodi="https://sodipodi.sourceforge.net/DTD/sodipodi-0.dtd"
   xmlns="https://www.w3.org/2000/svg"
   xmlns:svg="https://www.w3.org/2000/svg">
  <defs
     id="defs6">
    <clipPath
       clipPathUnits="userSpaceOnUse"
       id="clipPath22">
      <path
         d="M 5070.69,2516.3 H 26925.8 l -779.7,6374.92 c -850.5,5795.48 -7150.6,7720.08 -11647.9,4345.28 -1826.4,-1062.1 -3962.5,-1398 -6048.22,-1173 C 4390.11,12453 1552.72,7479.4 3943.86,4180.8 L 5070.69,2516.3"
         id="path20" />
    </clipPath>
    <clipPath
       clipPathUnits="userSpaceOnUse"
       id="clipPath66">
      <path
         d="m 14658.8,11518.8 -1310.6,-1063.6 -423.5,463.7 -550,-502.3 c 64.7,-71.5 450,-490.99 502.8,-552.66 213,-249.43 628.7,-250.16 842.9,-2.07 l 1193.3,1324.63 -254.9,332.3"
         id="path64" />
    </clipPath>
    <clipPath
       clipPathUnits="userSpaceOnUse"
       id="clipPath98">
      <path
         d="m 9608.96,10194.8 462.14,309.3 -322.92,568.9 c -273.34,-161.1 -722.97,-328.1 -716.69,-712.3 24.68,-157 -181.95,-1901.42 -12.6,-1976.54 199.47,-227.07 418.82,-41.22 601.7,93.36 l -255.58,2.56 243.95,1714.72"
         id="path96" />
    </clipPath>
    <clipPath
       clipPathUnits="userSpaceOnUse"
       id="clipPath114">
      <path
         d="M 10316.5,9419.24 10438,3052.6 h 428.1 l 897.3,6380.97 -1446.9,-14.33"
         id="path112" />
    </clipPath>
    <clipPath
       clipPathUnits="userSpaceOnUse"
       id="clipPath126">
      <path
         d="M 12734.9,9419.24 12613.4,3052.6 h -448.5 l -877,6380.97 1447,-14.33"
         id="path124" />
    </clipPath>
    <clipPath
       clipPathUnits="userSpaceOnUse"
       id="clipPath142">
      <path
         d="m 12004.7,12914.1 c -12.1,-779.6 -962.2,-779.5 -974.2,0.1 -86.4,798 1034.8,805.8 974.2,-0.1"
         id="path140" />
    </clipPath>
    <clipPath
       clipPathUnits="userSpaceOnUse"
       id="clipPath170">
      <path
         d="m 12526.3,11145.4 c -96.1,640.1 -585,960.9 -1132.7,889.9 -437.4,16.1 -831.5,-428.7 -885.9,-890.6 -7,-46.3 -357,-2358.07 -357,-2358.07 h 2732.6 l -357,2358.77"
         id="path168" />
    </clipPath>
  </defs>
  <sodipodi:namedview
     id="namedview4"
     pagecolor="#ffffff"
     bordercolor="#000000"
     borderopacity="0.25"
     inkscape:showpageshadow="2"
     inkscape:pageopacity="0.0"
     inkscape:pagecheckerboard="0"
     inkscape:deskcolor="#d1d1d1" />
  <g
     id="g8"
     inkscape:groupmode="layer"
     inkscape:label="ink_ext_XXXXXX"
     transform="matrix(1.3333333,0,0,-1.3333333,0,2400)">
    <g
       id="g10"
       transform="scale(0.1)">
      <path
         d="M 0,0 H 30000 V 18000 H 0 Z"
         style="fill:#ffffff;fill-opacity:1;fill-rule:nonzero;stroke:none"
         id="path12" />
      <path
         d="M 5070.69,2516.3 H 26925.8 l -779.7,6374.92 c -850.5,5795.48 -7150.6,7720.08 -11647.9,4345.28 -1826.4,-1062.1 -3962.5,-1398 -6048.22,-1173 C 4390.11,12453 1552.72,7479.4 3943.86,4180.8 L 5070.69,2516.3"
         style="fill:#dcecfd;fill-opacity:1;fill-rule:nonzero;stroke:none"
         id="path14" />
      <g
         id="g16">
        <g
           id="g18"
           clip-path="url(#clipPath22)">
          <path
             d="M 26925.8,2516.3 H 5070.69 L 3943.86,4180.8 c -553.12,763.1 -826.54,1615.4 -869.69,2470.6 v 377.8 H 6466.75 V 9433.57 H 12502.3 V 6452.6 H 19347 v 2451.9 h 4768.4 V 7391.2 h 2214.2 l 596.2,-4874.9"
             style="fill:#ebf4fe;fill-opacity:1;fill-rule:nonzero;stroke:none"
             id="path24" />
        </g>
      </g>
      <path
         d="m 20492.1,11189.5 h -1506.3 c -91.2,0 -170.7,-62.1 -192.7,-150.6 l -1856.2,-7433.6 136.6,-0.2 1841,7372.8 c 10.4,41.6 47.8,70.8 90.8,70.8 h 1486.8 c 38.9,0 70.4,31.5 70.4,70.4 0,38.9 -31.5,70.4 -70.4,70.4"
         style="fill:#324d90;fill-opacity:1;fill-rule:nonzero;stroke:none"
         id="path26" />
      <path
         d="m 25859.1,11183.3 h -1508.8 c -91.2,0 -170.6,-62 -192.7,-150.5 l -1856.2,-7433.6 136.7,-0.2 1841,7372.7 c 10.4,41.7 47.8,70.9 90.7,70.9 h 1489.3 c 38.8,0 70.3,31.5 70.3,70.4 0,38.8 -31.5,70.3 -70.3,70.3"
         style="fill:#324d90;fill-opacity:1;fill-rule:nonzero;stroke:none"
         id="path28" />
      <path
         d="m 18813.2,3248 c -3,287.1 -112.5,615.7 -400.8,716.9 -132.4,30.2 -272.4,9 -407.4,14 -357.4,52.3 -612.7,-263.9 -619.8,-730.9 7.2,-467 262.3,-783 619.8,-730.8 135,5 275,-16.2 407.4,14 286.3,97.4 399.7,435.8 400.8,716.8"
         style="fill:#152e60;fill-opacity:1;fill-rule:nonzero;stroke:none"
         id="path30" />
      <path
         d="m 16265.7,3565.3 c -65,200.7 -223.4,413.4 -452.5,414.5 -143.2,-0.7 -291.8,-0.4 -432.3,-0.1 -276.2,-6.5 -498.2,-338.2 -493.6,-743.8 4.7,-399.9 228.2,-721.7 505.3,-719.6 140.2,0.6 280.4,0.6 420.6,0 350.2,15.9 503.9,425.9 502,731.7 0,113.7 -17.8,221.3 -49.5,317.3"
         style="fill:#152e60;fill-opacity:1;fill-rule:nonzero;stroke:none"
         id="path32" />
      <path
         d="m 23339.3,3498 h -3610.6 v 4451.6 h 3610.6 V 3498"
         style="fill:#f08f3c;fill-opacity:1;fill-rule:nonzero;stroke:none"
         id="path34" />
      <path
         d="m 22075.9,7442 h -427.7 v 507.6 h 427.7 V 7442"
         style="fill:#fdf1e6;fill-opacity:1;fill-rule:nonzero;stroke:none"
         id="path36" />
      <path
         d="m 20327.2,3498 h -5440 v 4451.6 h 5440 V 3498"
         style="fill:#f3ac4a;fill-opacity:1;fill-rule:nonzero;stroke:none"
         id="path38" />
      <path
         d="M 17929.4,7442 H 17285 v 507.6 h 644.4 V 7442"
         style="fill:#fdf1e6;fill-opacity:1;fill-rule:nonzero;stroke:none"
         id="path40" />
      <path
         d="M 23857.6,3283.1 H 14368.9 V 3537 h 9488.7 v -253.9"
         style="fill:#324d90;fill-opacity:1;fill-rule:nonzero;stroke:none"
         id="path42" />
      <path
         d="M 19113.2,3283.1 H 14368.9 V 3537 h 4744.3 v -253.9"
         style="fill:#152e60;fill-opacity:1;fill-rule:nonzero;stroke:none"
         id="path44" />
      <path
         d="m 23037.2,3979.8 c -109.9,-0.6 -219.8,-0.6 -329.7,0 -746.2,105.9 -789.3,-1439.6 -94.2,-1463.5 109.9,0.6 219.8,0.6 329.7,0 746.1,-105.9 789.3,1439.5 94.2,1463.5"
         style="fill:#152e60;fill-opacity:1;fill-rule:nonzero;stroke:none"
         id="path46" />
      <path
         d="m 23539.2,3248 c -13,-963 -991.1,-962.9 -1004,0.1 13,963 991.1,962.9 1004,-0.1"
         style="fill:#324d90;fill-opacity:1;fill-rule:nonzero;stroke:none"
         id="path48" />
      <path
         d="m 23217.2,3248 c -4.7,-371 -355.4,-371 -360,0.1 4.7,371 355.4,371 360,-0.1"
         style="fill:#152e60;fill-opacity:1;fill-rule:nonzero;stroke:none"
         id="path50" />
      <path
         d="m 20539.2,3979.8 c -110,-0.6 -219.8,-0.6 -329.8,0 -746.1,105.9 -789.3,-1439.6 -94.2,-1463.5 109.9,0.6 219.8,0.6 329.8,0 746.1,-105.9 789.2,1439.5 94.2,1463.5"
         style="fill:#152e60;fill-opacity:1;fill-rule:nonzero;stroke:none"
         id="path52" />
      <path
         d="m 21041.2,3248 c -13.1,-963 -991.1,-962.9 -1004.1,0.1 13.1,963 991.1,962.9 1004.1,-0.1"
         style="fill:#324d90;fill-opacity:1;fill-rule:nonzero;stroke:none"
         id="path54" />
      <path
         d="m 20719.2,3248 c -4.7,-371 -355.4,-371 -360.1,0.1 4.7,371 355.4,371 360.1,-0.1"
         style="fill:#152e60;fill-opacity:1;fill-rule:nonzero;stroke:none"
         id="path56" />
      <path
         d="m 14658.8,11518.8 -1310.6,-1063.6 -423.5,463.7 -550,-502.3 c 64.7,-71.5 450,-490.99 502.8,-552.65 213,-249.44 628.7,-250.17 842.9,-2.08 l 1193.3,1324.63 -254.9,332.3"
         style="fill:#f4d2c6;fill-opacity:1;fill-rule:nonzero;stroke:none"
         id="path58" />
      <g
         id="g60">
        <g
           id="g62"
           clip-path="url(#clipPath66)">
          <path
             d="m 13348.2,10455.2 -359.1,-780.53 -396.5,349.63 627.2,607.7 128.4,-176.8"
             style="fill:#eda19d;fill-opacity:1;fill-rule:nonzero;stroke:none"
             id="path68" />
        </g>
      </g>
      <path
         d="m 15382,9266.87 h -1213.6 c -65.3,0 -118.3,52.98 -118.3,118.35 v 1791.28 c 0,65.4 53,118.4 118.3,118.4 H 15382 c 65.3,0 118.3,-53 118.3,-118.4 V 9385.22 c 0,-65.37 -53,-118.35 -118.3,-118.35"
         style="fill:#324d90;fill-opacity:1;fill-rule:nonzero;stroke:none"
         id="path70" />
      <path
         d="M 15358.4,9421.71 H 14192 v 1717.19 h 1166.4 V 9421.71"
         style="fill:#f3f5fb;fill-opacity:1;fill-rule:nonzero;stroke:none"
         id="path72" />
      <path
         d="m 14976.7,11090.9 h -403 c -26.2,0 -47.4,21.2 -47.4,47.3 v 154 c 0,26.1 21.2,47.3 47.4,47.3 h 403 c 26.2,0 47.4,-21.2 47.4,-47.3 v -154 c 0,-26.1 -21.2,-47.3 -47.4,-47.3"
         style="fill:#152e60;fill-opacity:1;fill-rule:nonzero;stroke:none"
         id="path74" />
      <path
         d="m 15259.5,10735.6 h -968.6 v 116.8 h 968.6 v -116.8"
         style="fill:#e3eaf4;fill-opacity:1;fill-rule:nonzero;stroke:none"
         id="path76" />
      <path
         d="m 15259.5,10479 h -968.6 v 116.8 h 968.6 V 10479"
         style="fill:#e3eaf4;fill-opacity:1;fill-rule:nonzero;stroke:none"
         id="path78" />
      <path
         d="m 15259.5,10222.5 h -968.6 v 116.8 h 968.6 v -116.8"
         style="fill:#e3eaf4;fill-opacity:1;fill-rule:nonzero;stroke:none"
         id="path80" />
      <path
         d="m 15259.5,9965.89 h -968.6 v 116.81 h 968.6 v -116.81"
         style="fill:#e3eaf4;fill-opacity:1;fill-rule:nonzero;stroke:none"
         id="path82" />
      <path
         d="m 14970,9709.32 h -679.1 v 116.79 h 679.1 v -116.79"
         style="fill:#e3eaf4;fill-opacity:1;fill-rule:nonzero;stroke:none"
         id="path84" />
      <path
         d="m 14585.5,11387.5 c -18.3,-153.6 107.3,-233.2 227,-293.4 174.4,-106.9 416.4,68.3 364,267.9 -18.8,141.1 -109.1,209.9 -241.1,242.4 -148,47.8 -337.6,-54.9 -349.9,-216.9"
         style="fill:#f4d2c6;fill-opacity:1;fill-rule:nonzero;stroke:none"
         id="path86" />
      <path
         d="m 9667.77,11226.3 1423.53,746.7 454.3,-866.2 -1423.5,-746.7 -454.33,866.2"
         style="fill:#4292f3;fill-opacity:1;fill-rule:nonzero;stroke:none"
         id="path88" />
      <path
         d="m 9608.96,10194.7 462.14,309.4 -322.91,568.9 c -273.35,-161.1 -722.98,-328.1 -716.7,-712.3 24.69,-157 -181.95,-1901.42 -12.6,-1976.54 v 0 c 199.48,-227.07 418.82,-41.21 601.71,93.36 l -255.59,2.56 243.95,1714.62"
         style="fill:#f4d2c6;fill-opacity:1;fill-rule:nonzero;stroke:none"
         id="path90" />
      <g
         id="g92">
        <g
           id="g94"
           clip-path="url(#clipPath98)">
          <path
             d="m 9544.71,11062.2 167.19,-669.2 383.3,249.6 -262.49,572.6 -288,-153"
             style="fill:#eda19d;fill-opacity:1;fill-rule:nonzero;stroke:none"
             id="path100" />
        </g>
      </g>
      <path
         d="m 12681.8,9935.08 -1136.6,1136.62 691.6,691.7 1136.7,-1136.7 -691.7,-691.62"
         style="fill:#4292f3;fill-opacity:1;fill-rule:nonzero;stroke:none"
         id="path102" />
      <path
         d="m 12705.8,9959.08 -190.8,1045.02 322.5,-913.3 z"
         style="fill:#3c7ed7;fill-opacity:1;fill-rule:nonzero;stroke:none"
         id="path104" />
      <path
         d="M 10316.5,9419.25 10438,3052.5 h 428.1 l 897.3,6381.07 -1446.9,-14.32"
         style="fill:#324d90;fill-opacity:1;fill-rule:nonzero;stroke:none"
         id="path106" />
      <g
         id="g108">
        <g
           id="g110"
           clip-path="url(#clipPath114)">
          <path
             d="m 11523,7723.5 c -622.1,-826.4 -809.5,-3567.9 -858.6,-4757.4 h 375.6 l 464.5,2916.9 18.5,1840.5"
             style="fill:#2a437d;fill-opacity:1;fill-rule:nonzero;stroke:none"
             id="path116" />
        </g>
      </g>
      <path
         d="M 12734.9,9419.25 12613.4,3052.5 h -448.5 l -877,6381.07 1447,-14.32"
         style="fill:#324d90;fill-opacity:1;fill-rule:nonzero;stroke:none"
         id="path118" />
      <g
         id="g120">
        <g
           id="g122"
           clip-path="url(#clipPath126)">
          <path
             d="m 11523,7723.5 c 528.9,-672 820.6,-3755.7 833.5,-4720.1 h -345.1 L 11523,7723.5"
             style="fill:#2a437d;fill-opacity:1;fill-rule:nonzero;stroke:none"
             id="path128" />
        </g>
      </g>
      <path
         d="m 11107.8,12938.7 c 32.9,-197.8 -137.4,-226.8 -171.6,-29.1 -32.9,197.8 137.3,226.7 171.6,29.1"
         style="fill:#eda19d;fill-opacity:1;fill-rule:nonzero;stroke:none"
         id="path130" />
      <path
         d="m 11927.4,12938.7 c -32.9,-197.8 137.3,-226.8 171.6,-29.1 32.9,197.8 -137.4,226.7 -171.6,29.1"
         style="fill:#eda19d;fill-opacity:1;fill-rule:nonzero;stroke:none"
         id="path132" />
      <path
         d="m 12004.7,12914.1 c -12.1,-779.6 -962.2,-779.5 -974.2,0.1 -86.4,798 1034.8,805.8 974.2,-0.1"
         style="fill:#f4d2c6;fill-opacity:1;fill-rule:nonzero;stroke:none"
         id="path134" />
      <g
         id="g136">
        <g
           id="g138"
           clip-path="url(#clipPath142)">
          <path
             d="m 11072.6,13194.8 c 0,0 368.2,-76.1 861.9,61 493.7,137 0,0 0,0 l -53.4,176.4 -718.5,-25.5 -90,-181.8"
             style="fill:#eda19d;fill-opacity:1;fill-rule:nonzero;stroke:none"
             id="path144" />
        </g>
      </g>
      <path
         d="m 11770,12770.9 c -126.8,0 -378,0 -504.9,0 60.9,-173.8 -72,-1044.6 -72,-1044.6 162.8,0 486.2,0 648.9,0 0,0 -132.9,870.8 -72,1044.6"
         style="fill:#f4d2c6;fill-opacity:1;fill-rule:nonzero;stroke:none"
         id="path146" />
      <path
         d="m 11272,12402.3 c 0,0 228.8,-176.5 491.1,0 l 13.8,-158 c 0,0 -282.4,-132 -518.8,-1.6 l 13.9,159.6"
         style="fill:#eda19d;fill-opacity:1;fill-rule:nonzero;stroke:none"
         id="path148" />
      <path
         d="m 11096.5,13334.4 c 0,0 637,-63.4 801.3,34.6 164.3,98 129.7,429.5 129.7,429.5 -93.4,-14.9 -1151.7,11 -931,-464.1"
         style="fill:#59445a;fill-opacity:1;fill-rule:nonzero;stroke:none"
         id="path150" />
      <path
         d="m 11108.6,13547.3 c 0,0 -177.9,-53.4 -199.3,-126.4 -21.3,-72.9 127.8,-354.9 127.8,-354.9 40.1,0.4 74.7,28.1 83.7,67.1 l 55.4,238 -67.6,176.2"
         style="fill:#59445a;fill-opacity:1;fill-rule:nonzero;stroke:none"
         id="path152" />
      <path
         d="m 11925.2,13547.3 c 0,0 178,-53.4 199.3,-126.4 21.4,-72.9 -127.7,-354.9 -127.7,-354.9 -40.3,-1.1 -77.4,33 -83.8,67.2 -1.1,4.7 -55.4,237.9 -55.4,237.9 l 67.6,176.2"
         style="fill:#59445a;fill-opacity:1;fill-rule:nonzero;stroke:none"
         id="path154" />
      <path
         d="m 11857.6,13351.1 c 0,0 143.8,83.2 147.1,166 0,0 54.3,-199.6 -147.1,-166"
         style="fill:#34254b;fill-opacity:1;fill-rule:nonzero;stroke:none"
         id="path156" />
      <path
         d="m 10509.9,3052.5 -47.2,-165.5 -510.37,-218.7 c -60.8,-26.1 -100.22,-85.8 -100.22,-152 h 1053.99 l -40,536.2 h -356.2"
         style="fill:#152e60;fill-opacity:1;fill-rule:nonzero;stroke:none"
         id="path158" />
      <path
         d="m 12521,3052.5 47.3,-165.5 510.4,-218.7 c 60.8,-26.1 100.2,-85.8 100.2,-152 h -1054 l 40,536.2 h 356.1"
         style="fill:#152e60;fill-opacity:1;fill-rule:nonzero;stroke:none"
         id="path160" />
      <path
         d="m 12526.3,11145.4 c -96.1,640.1 -585,960.9 -1132.7,889.9 -437.4,16.1 -831.5,-428.7 -885.9,-890.6 -7,-46.3 -357,-2358.07 -357,-2358.07 h 2732.6 l -357,2358.77"
         style="fill:#4292f3;fill-opacity:1;fill-rule:nonzero;stroke:none"
         id="path162" />
      <g
         id="g164">
        <g
           id="g166"
           clip-path="url(#clipPath170)">
          <path
             d="m 11232.8,8727.87 503.2,539 -1054,1711.13 359.7,-1588.7 -1079.61,-759.5 1270.71,98.07"
             style="fill:#3c7ed7;fill-opacity:1;fill-rule:nonzero;stroke:none"
             id="path172" />
        </g>
      </g>
      <path
         d="M 11436,9287.04 9382.44,8371.33 8628.41,10062.3 10682,10978 11436,9287.04"
         style="fill:#f3ac4a;fill-opacity:1;fill-rule:nonzero;stroke:none"
         id="path174" />
      <path
         d="m 9928.2,10337.1 -319.24,-142.4 -113.37,254.3 319.24,142.3 113.37,-254.2"
         style="fill:#fdf1e6;fill-opacity:1;fill-rule:nonzero;stroke:none"
         id="path176" />
      <path
         d="m 9206.53,8629.8 c 108.59,-23.79 317.86,-16.78 338.18,-164.99 l -338.18,-17.06 v 182.05"
         style="fill:#f4d2c6;fill-opacity:1;fill-rule:nonzero;stroke:none"
         id="path178" />
      <path
         d="m 11232.8,12018 c 98.7,-292.5 471,-292.4 569.5,0 0,0 -243.6,131.8 -569.5,0"
         style="fill:#f4d2c6;fill-opacity:1;fill-rule:nonzero;stroke:none"
         id="path180" />
      <path
         d="m 10327,8786.1 h 2395.8 l -2385.4,-463.53 z"
         style="fill:#2a437d;fill-opacity:1;fill-rule:nonzero;stroke:none"
         id="path182" />
      <path
         d="m 11232.8,12018 271.7,-220.2 -112.4,-71.1 c -179.5,-94.3 -208.6,154.1 -252.2,264.8 0,0 47.3,20.7 92.9,26.5"
         style="fill:#f3f5fb;fill-opacity:1;fill-rule:nonzero;stroke:none"
         id="path184" />
      <path
         d="m 11572.6,11803.1 105.8,-65.7 c 74.2,-46 171.6,-3.4 188.1,82.3 l 32.8,170 c 0,0 -74.1,24.6 -97,28.3 l -229.7,-214.9"
         style="fill:#f3f5fb;fill-opacity:1;fill-rule:nonzero;stroke:none"
         id="path186" />
      <path
         d="M 8364.07,2516.3 H 5279.49 V 6243.1 H 8364.07 V 2516.3"
         style="fill:#f3ac4a;fill-opacity:1;fill-rule:nonzero;stroke:none"
         id="path188" />
      <path
         d="m 7060.08,5881.5 h -476.6 v 361.6 h 476.6 v -361.6"
         style="fill:#fdf1e6;fill-opacity:1;fill-rule:nonzero;stroke:none"
         id="path190" />
      <path
         d="M 9975.22,2516.3 H 8364.07 V 6243.1 H 9975.22 V 2516.3"
         style="fill:#f08f3c;fill-opacity:1;fill-rule:nonzero;stroke:none"
         id="path192" />
      <path
         d="m 9460.32,5881.5 h -408.29 v 361.6 h 408.29 v -361.6"
         style="fill:#fdf1e6;fill-opacity:1;fill-rule:nonzero;stroke:none"
         id="path194" />
      <path
         d="m 20770.3,12402.3 h -3634.9 c -99.1,0 -179.4,80.3 -179.4,179.3 v 1202.5 c 0,99.1 80.3,179.4 179.4,179.4 h 3634.9 c 99.1,0 179.4,-80.3 179.4,-179.4 v -1202.5 c 0,-99 -80.3,-179.3 -179.4,-179.3"
         style="fill:#ffffff;fill-opacity:1;fill-rule:nonzero;stroke:none"
         id="path196" />
      <path
         d="M 20643.7,13508.3 H 17262 v 195.9 h 3381.7 v -195.9"
         style="fill:#deeefc;fill-opacity:1;fill-rule:nonzero;stroke:none"
         id="path198" />
      <path
         d="M 20643.7,13085 H 17262 v 195.8 h 3381.7 V 13085"
         style="fill:#deeefc;fill-opacity:1;fill-rule:nonzero;stroke:none"
         id="path200" />
      <path
         d="M 19506.9,12661.6 H 17262 v 195.8 h 2244.9 v -195.8"
         style="fill:#deeefc;fill-opacity:1;fill-rule:nonzero;stroke:none"
         id="path202" />
      <path
         d="m 8234.68,12144.4 c -272.44,-2310.26 -1582.63,-2308.16 -1854.48,0.1 20.79,1218.7 1833.83,1218.7 1854.48,-0.1"
         style="fill:#324d90;fill-opacity:1;fill-rule:nonzero;stroke:none"
         id="path204" />
      <path
         d="m 7803.78,12193.2 c -11.15,-652.4 -981.62,-652.3 -992.67,0 11.15,652.4 981.62,652.3 992.67,0"
         style="fill:#ffffff;fill-opacity:1;fill-rule:nonzero;stroke:none"
         id="path206" />
      <path
         d="M 8423.73,7548.1 H 5566.66 c -50.74,0 -91.87,41.1 -91.87,91.8 v 996.09 c 0,50.74 41.13,91.88 91.87,91.88 h 2857.07 c 50.74,0 91.87,-41.14 91.87,-91.88 V 7639.9 c 0,-50.7 -41.13,-91.8 -91.87,-91.8"
         style="fill:#d4e8fc;fill-opacity:1;fill-rule:nonzero;stroke:none"
         id="path208" />
      <path
         d="M 8281.75,7667.1 H 5478.53 c -76.39,0 -138.32,62 -138.32,138.3 v 927.41 c 0,76.39 61.93,138.31 138.32,138.31 h 2803.22 c 76.39,0 138.31,-61.92 138.31,-138.31 V 7805.4 c 0,-76.3 -61.92,-138.3 -138.31,-138.3"
         style="fill:#ffffff;fill-opacity:1;fill-rule:nonzero;stroke:none"
         id="path210" />
      <path
         d="M 8184.12,8520.12 H 5576.15 v 151.02 h 2607.97 v -151.02"
         style="fill:#deeefc;fill-opacity:1;fill-rule:nonzero;stroke:none"
         id="path212" />
      <path
         d="M 8184.12,8193.62 H 5576.15 v 151.02 h 2607.97 v -151.02"
         style="fill:#deeefc;fill-opacity:1;fill-rule:nonzero;stroke:none"
         id="path214" />
      <path
         d="m 7307.45,7867.1 h -1731.3 v 151.03 h 1731.3 V 7867.1"
         style="fill:#deeefc;fill-opacity:1;fill-rule:nonzero;stroke:none"
         id="path216" />
      <path
         d="M 16426.8,5723.8 H 14887.2 V 4645.3 h 1539.6 c 68.4,0 123.9,55.5 123.9,123.9 v 830.7 c 0,68.4 -55.5,123.9 -123.9,123.9"
         style="fill:#f08f3c;fill-opacity:1;fill-rule:nonzero;stroke:none"
         id="path218" />
      <path
         d="m 16279.6,4804.5 h -2511 c -68.5,0 -123.9,55.4 -123.9,123.9 v 830.7 c 0,68.4 55.4,123.9 123.9,123.9 h 2511 c 68.4,0 123.8,-55.5 123.8,-123.9 v -830.7 c 0,-68.5 -55.4,-123.9 -123.8,-123.9"
         style="fill:#ffffff;fill-opacity:1;fill-rule:nonzero;stroke:none"
         id="path220" />
      <path
         d="M 16192.1,5568.5 H 13856 v 135.3 h 2336.1 v -135.3"
         style="fill:#deeefc;fill-opacity:1;fill-rule:nonzero;stroke:none"
         id="path222" />
      <path
         d="M 16192.1,5276.1 H 13856 v 135.3 h 2336.1 v -135.3"
         style="fill:#deeefc;fill-opacity:1;fill-rule:nonzero;stroke:none"
         id="path224" />
      <path
         d="M 15406.8,4983.6 H 13856 v 135.3 h 1550.8 v -135.3"
         style="fill:#deeefc;fill-opacity:1;fill-rule:nonzero;stroke:none"
         id="path226" />
      <path
         d="m 23491.3,12770.9 -567.1,-1140.7 c -11.3,-22.9 -44.3,-22.1 -54.5,1.3 l -146,333.4 767.6,806"
         style="fill:#324d90;fill-opacity:1;fill-rule:nonzero;stroke:none"
         id="path228" />
      <path
         d="m 22723.7,11964.9 -395.1,131.3 1162.7,674.7 z"
         style="fill:#4292f3;fill-opacity:1;fill-rule:nonzero;stroke:none"
         id="path230" />
      <path
         d="m 23491.3,12770.9 -523.9,-895 470.6,-157.6 z"
         style="fill:#4292f3;fill-opacity:1;fill-rule:nonzero;stroke:none"
         id="path232" />
      <path
         d="m 22810.7,11345 -14.9,5.6 c 6.6,17.4 13.1,34.8 19.5,52.1 l 14.9,-5.5 c -6.4,-17.4 -12.9,-34.8 -19.5,-52.2"
         style="fill:#324d90;fill-opacity:1;fill-rule:nonzero;stroke:none"
         id="path234" />
      <path
         d="m 22752,11196.1 -14.7,6 c 14.1,34.3 28,69.2 41.4,103.8 l 14.8,-5.7 c -13.4,-34.7 -27.4,-69.7 -41.5,-104.1 z m -63,-147.2 -14.5,6.5 c 15,33.6 29.9,68.1 44.4,102.5 l 14.7,-6.1 c -14.6,-34.5 -29.5,-69.1 -44.6,-102.9 z m -67.2,-145.2 -14.4,6.9 c 16.1,33.3 32,67.3 47.4,101.2 l 14.5,-6.6 c -15.5,-34 -31.5,-68.1 -47.5,-101.5 z m -71.7,-142.9 -14.1,7.4 c 17,32.6 34,66 50.5,99.4 l 14.2,-7 c -16.5,-33.5 -33.5,-67.1 -50.6,-99.8 z m -76.3,-140.4 -13.9,7.8 c 18.1,32 36.2,64.9 53.8,97.7 l 14,-7.5 c -17.6,-32.9 -35.8,-65.9 -53.9,-98 z m -81.3,-137.9 -13.5,8.4 c 19.2,31.3 38.5,63.6 57.2,95.8 l 13.7,-8 c -18.7,-32.3 -38.1,-64.7 -57.4,-96.2 z m -86.4,-134.8 -13.3,8.9 c 20.5,30.5 40.9,62 60.9,93.6 l 13.4,-8.4 c -20,-31.8 -40.5,-63.4 -61,-94.1 z m -91.9,-131.3 -12.9,9.4 c 21.8,29.8 43.6,60.5 64.7,91.1 l 13.1,-9 c -21.2,-30.8 -43.1,-61.6 -64.9,-91.5 z m -97.7,-127.1 -12.4,9.9 c 23.1,28.6 46.1,58.3 68.7,88.2 l 12.7,-9.6 c -22.7,-30 -45.9,-59.8 -69,-88.5 z m -103.7,-122.47 -11.8,10.57 c 24.4,27.4 48.9,55.9 72.8,84.7 l 12.2,-10.1 c -24,-29 -48.6,-57.65 -73.2,-85.17 z m -1950.2,-107.97 c -32.6,12.52 -69.3,13.7 -104.7,3.45 l -4.5,15.27 c 38.7,11.21 79.1,9.88 114.9,-3.88 z m 1840.3,-8.92 -11.3,11.21 c 25.9,26.02 51.8,53.18 77.2,80.72 l 11.7,-10.77 c -25.5,-27.69 -51.6,-55 -77.6,-81.16 z m -2061.4,-81.79 -13.9,7.68 c 18.9,34.23 46.6,62.62 80.1,82.11 l 8,-13.75 c -31,-18.04 -56.7,-44.34 -74.2,-76.04 z m 324.1,-17.04 c -13.6,33.31 -36.9,65.59 -63.4,85.48 l 9.7,12.62 c 28.7,-21.58 53.8,-56.12 68.4,-92.03 z m 1620.8,-11.59 -10.6,11.86 c 27.3,24.39 54.8,49.98 81.7,76.09 l 11.1,-11.41 c -27.1,-26.26 -54.7,-52.01 -82.2,-76.54 z m -123.1,-102.93 -9.8,12.53 c 28.9,22.57 57.9,46.36 86.3,70.72 l 10.3,-12.07 c -28.5,-24.51 -57.8,-48.46 -86.8,-71.18 z m -1859.5,-20.88 c -6,37.98 -5.6,77.46 4.9,114.24 l 15.3,-4.35 c -9.9,-34.57 -10.1,-71.7 -4.5,-107.41 z m 391.9,-19.88 -15.7,2.59 c 6,36.16 6.2,73.25 -0.9,108.34 l 15.6,3.17 c 7.5,-36.99 7.3,-76.03 1,-114.1 z m 1337.8,-53.54 -8.9,13.19 c 30.4,20.5 61,42.23 90.9,64.57 l 9.5,-12.73 c -30.1,-22.51 -60.9,-44.38 -91.5,-65.03 z m -1669.3,-76.8 c -21.8,33.11 -38.4,67.59 -49.3,102.48 l 15.2,4.72 c 10.4,-33.46 26.4,-66.59 47.4,-98.45 z m 1533,-7.68 -7.9,13.83 c 32,18.15 64.1,37.53 95.4,57.6 l 8.5,-13.39 c -31.5,-20.23 -63.8,-39.75 -96,-58.04 z m -1259.9,-12.84 -13.5,8.37 c 19.1,30.94 35.2,64.56 45.6,99.44 l 15.2,-4.59 c -10.8,-36.21 -27.4,-71.11 -47.3,-103.22 z m -2777,-58.55 -0.5,15.9 c 36.5,1.26 74.7,1.78 112.2,1.48 l -0.1,-15.9 c -37.1,0.23 -75.2,-0.27 -111.6,-1.48 z m 3894.6,-2.02 -6.7,14.41 c 33.3,15.49 66.7,32.25 99.4,49.79 l 7.5,-14.01 c -32.9,-17.69 -66.6,-34.58 -100.2,-50.19 z m -3623.8,-1.48 c -37.8,2.08 -75.3,3.53 -111.4,4.31 l 0.3,15.89 c 36.3,-0.78 74,-2.23 112,-4.32 z m -429.6,-6.77 -1.6,15.83 c 36.5,3.55 74.1,6.34 111.9,8.29 l 0.8,-15.87 c -37.5,-1.95 -74.9,-4.72 -111.1,-8.25 z m 588.7,-5.21 c -37.9,3.58 -75.3,6.62 -111.2,9.06 l 1,15.87 c 36.1,-2.45 73.7,-5.51 111.7,-9.1 z m -746.4,-15.8 -2.7,15.67 c 36.3,6.2 73.7,11.59 111,16.01 l 1.9,-15.8 c -37.1,-4.38 -74.1,-9.73 -110.2,-15.88 z m 905,-1.78 c -38,4.79 -75.3,9.1 -110.9,12.82 l 1.7,15.82 c 35.6,-3.74 73.1,-8.06 111.2,-12.85 z m 2025.4,-6.35 c -30,23.41 -57.3,50.07 -81.1,79.22 l 12.3,10.07 c 23.1,-28.24 49.5,-54.06 78.6,-76.75 z M 18107,9331.62 c -38.9,5.77 -75.1,10.88 -110.6,15.6 l 2.1,15.76 c 35.5,-4.73 71.8,-9.85 110.9,-15.63 z m 2999.9,-8.59 -5.4,14.93 c 34.5,12.62 69.3,26.52 103.3,41.33 l 6.3,-14.58 c -34.3,-14.94 -69.3,-28.96 -104.2,-41.68 z m -4218.7,-0.65 -3.9,15.42 c 36,9.05 72.8,17.25 109.5,24.39 l 3,-15.62 c -36.4,-7.07 -72.9,-15.21 -108.6,-24.19 z m 1376.7,-15.39 c -36.9,5.99 -73.7,11.84 -110.4,17.47 l 2.4,15.73 c 36.8,-5.65 73.6,-11.51 110.5,-17.51 z m 157.6,-26.26 c -36.8,6.23 -73.6,12.42 -110.3,18.5 l 2.6,15.68 c 36.7,-6.08 73.5,-12.26 110.3,-18.49 z m -1686.7,-3.47 -5.1,15.05 c 35.1,11.99 71.2,23.15 107.2,33.18 l 4.3,-15.32 c -35.8,-9.94 -71.5,-21.02 -106.4,-32.91 z m 4218.3,-2.65 -4.1,15.35 c 35.6,9.59 71.5,20.43 106.5,32.21 l 5.1,-15.07 c -35.4,-11.89 -71.5,-22.82 -107.5,-32.49 z m -838.9,-6.38 c -36.2,14.4 -69.4,30.74 -101.2,50.73 l 8.5,13.42 2.1,-1.26 -4.1,4.95 c 28.8,23.7 54.6,50.15 76.5,78.59 l 12.6,-9.7 c -22,-28.56 -47.7,-55.15 -76.5,-79.08 27.5,-16.28 56.8,-30.52 87.9,-42.86 z m -1535.1,-14.19 c -36.8,6.19 -73.6,12.43 -110.3,18.67 l 2.7,15.68 c 36.7,-6.23 73.4,-12.48 110.2,-18.67 z m 2217.5,-14.3 -2.8,15.65 c 36.6,6.6 73,14.09 109,22.79 l 3.7,-15.45 c -36.3,-8.78 -72.9,-16.33 -109.9,-22.99 z m -904.6,-0.28 -6.5,14.48 c 34.7,15.75 67.1,33.86 96.2,53.81 l 9,-13.12 c -29.9,-20.47 -63.1,-39.04 -98.7,-55.17 z m -1155.2,-11.39 c -36.8,5.89 -73.6,11.92 -110.4,18.04 l 2.6,15.69 c 36.7,-6.12 73.5,-12.15 110.3,-18.03 z m 1532.6,-2.94 c -38.3,6.82 -75.2,15.85 -109.6,26.83 l 4.9,15.15 c 33.7,-10.77 69.8,-19.63 107.5,-26.33 z m -3682.8,-5.48 -6.4,14.57 c 34.2,14.97 69.3,29.09 104.1,41.97 l 5.5,-14.92 c -34.5,-12.77 -69.3,-26.78 -103.2,-41.62 z m 4051.3,-2.51 -1.6,15.82 c 35.8,3.65 73,8.51 110.4,14.44 l 2.5,-15.7 c -37.7,-5.98 -75.2,-10.88 -111.3,-14.56 z m -208.5,-8.08 c -38.7,1.23 -76.5,4.18 -112.2,8.77 l 2,15.77 c 35.2,-4.52 72.5,-7.43 110.7,-8.65 z m 48.2,-0.68 v 15.9 c 35.7,0.12 73.1,1.63 111.1,4.47 l 1.2,-15.85 c -38.4,-2.88 -76.1,-4.39 -112.3,-4.52 z m -1582.7,-4.41 c -36.9,5.32 -73.8,10.88 -110.7,16.62 l 2.5,15.71 c 36.8,-5.73 73.6,-11.28 110.5,-16.59 z m 844.6,-16.16 -3.7,15.45 c 37.2,9.03 72.8,19.96 105.9,32.5 l 5.6,-14.87 c -33.7,-12.77 -69.9,-23.9 -107.8,-33.08 z m -686,-4.94 c -35.6,4.3 -72.9,9.15 -111,14.4 l 2.1,15.75 c 38,-5.24 75.3,-10.07 110.8,-14.36 z m 159.1,-16.92 c -35.9,3.26 -73.4,7.08 -111.4,11.36 l 1.7,15.79 c 37.9,-4.26 75.3,-8.07 111.1,-11.31 z m 368.4,-4.76 -1.6,15.82 c 37.9,3.85 74.9,9.27 109.9,16.1 l 3.1,-15.61 c -35.6,-6.92 -73,-12.41 -111.4,-16.31 z m -208.6,-6.34 c -37.2,1.25 -74.7,4.05 -112,7 l 1.3,15.85 c 37,-2.92 74.2,-5.71 111.3,-6.96 z m 58.4,-1.02 -10.2,0.03 0.1,15.9 c 37.2,-0.24 75.1,0.86 111.2,3.28 l 1,-15.87 c -33.2,-2.22 -67.6,-3.34 -102.1,-3.34 z m -2987.2,-3.83 -7.5,14 c 32.9,17.74 66.7,34.7 100.3,50.4 l 6.7,-14.4 c -33.3,-15.58 -66.8,-32.4 -99.5,-50 z m -137,-80.88 -8.6,13.37 c 31.6,20.33 63.9,39.9 96,58.19 l 7.9,-13.81 c -31.9,-18.15 -63.9,-37.58 -95.3,-57.75 z m -130.6,-90.99 -9.5,12.75 c 33.2,24.71 60.6,44.3 91.4,65.13 l 8.9,-13.17 c -30.6,-20.69 -57.8,-40.16 -90.8,-64.71 z m -126.2,-97.58 -9.8,12.48 c 28.1,22.23 58.3,45.96 88.2,68.87 l 9.7,-12.62 c -29.9,-22.85 -60,-46.54 -88.1,-68.73 z m -125.8,-98.68 -9.7,12.6 c 31,23.76 61.7,48 88.1,68.85 l 9.8,-12.48 c -26.4,-20.88 -57.2,-45.16 -88.2,-68.97 z m -129.2,-94.74 -9,13.1 c 28.3,19.48 57.9,40.83 90.4,65.29 l 9.6,-12.72 c -32.8,-24.59 -62.5,-46.07 -91,-65.67 z m -136.2,-85.09 -7.7,13.91 c 31,17.15 62.1,36.02 95.2,57.66 l 8.7,-13.32 c -33.4,-21.84 -64.9,-40.89 -96.2,-58.25 z m -145.6,-68.22 -5.6,14.88 c 33.2,12.54 67.3,27.65 101.4,44.91 l 7.2,-14.2 c -34.6,-17.51 -69.3,-32.85 -103,-45.59 z m -155.1,-42.78 -2.7,15.66 c 35.5,6.13 71.6,15.01 107.4,26.4 l 4.8,-15.16 c -36.4,-11.6 -73.3,-20.65 -109.5,-26.9"
         style="fill:#324d90;fill-opacity:1;fill-rule:nonzero;stroke:none"
         id="path236" />
      <path
         d="m 15254.7,8480.35 -0.6,15.9 c 18.4,0.6 36.9,1.9 55,3.85 l 1.7,-15.8 c -18.5,-2.01 -37.4,-3.33 -56.1,-3.95"
         style="fill:#324d90;fill-opacity:1;fill-rule:nonzero;stroke:none"
         id="path238" />
      <path
         d="m 14732.6,8935.03 c -5.3,37.43 -6.7,75.21 -4,112.73 l 15.9,-1.14 c -2.7,-36.4 -1.3,-73.04 3.8,-109.36 z m 45.8,-154.13 c -15.9,34 -28.3,69.85 -36.9,106.56 l 15.5,3.61 c 8.3,-35.63 20.3,-70.42 35.8,-103.43 z m 89.5,-133.61 c -25.7,27.83 -48,58.12 -67.1,90.73 l 13.8,8 c 18.4,-31.61 40.1,-60.96 65,-87.94 z m 125.4,-100.67 c -32.6,19 -63.2,41.41 -91,66.6 l 10.7,11.8 c 27,-24.46 56.7,-46.22 88.3,-64.67 z m 149.4,-59.42 c -36.4,8.35 -72.2,20.77 -106.6,36.9 l 6.8,14.4 c 33.3,-15.66 68.1,-27.7 103.4,-35.79 l -3.6,-15.51"
         style="fill:#324d90;fill-opacity:1;fill-rule:nonzero;stroke:none"
         id="path240" />
      <path
         d="m 2288.72,2504.1 c 8516.18,33.5 17412.88,33.7 25928.98,0 -8516.2,-33.8 -17412.9,-33.5 -25928.98,0"
         style="fill:#152e60;fill-opacity:1;fill-rule:nonzero;stroke:none"
         id="path242" />
    </g>
  </g>
</svg>
