<?xml version="1.0"?>
<svg version="1.1" xmlns="http://www.w3.org/2000/svg" width="400px" height="100px" style=""><path fill="#" d="M26,46l-21.68,0l0,2.44l9.84,0l0,25.64l2.48,0l0-25.64l9.36,0l0-2.44z M43.1936,59.96l3,0q3.04,0,5.04-2t2-5.04q0-2.68-2-4.8q-2.12-2.2-5.04-2.2l-12.52,0l-2.48,0l0,28.08l2.48,0l0-14.04l6.52,0l8.52,14.04l3,0z M33.6736,57.48l0-9.04l12.52,0q1.84,0,3.24,1.32q1.32,1.32,1.32,3.16q0,1.92-1.32,3.24q-1.4,1.32-3.24,1.32l-12.52,0z M69.5472,45.84q-4.48,0-7.52,3.24q-3,3.2-3,7.8l0,17.12l2.52,0l0-12.56l16.08,0l0,12.56l2.52,0l0-17.12q0-4.6-3-7.8q-3.12-3.24-7.6-3.24z M77.6272,58.96l-16.08,0l0-2.08q0-3.44,2.32-5.96q2.36-2.56,5.68-2.56t5.76,2.56q2.32,2.52,2.32,5.96l0,2.08z M86.2208,74l2.48,0l0-16.96q0-3.36,2.56-6q2.56-2.56,5.92-2.56t6,2.56q2.56,2.64,2.56,6l0,16.96l2.48,0l0-16.96q0-4.56-3.24-7.8t-7.8-3.24q-4.48,0-7.72,3.24t-3.24,7.8l0,16.96z M120.7344,48.92l15.08,0l0-3.04l-15.08,0q-2.96,0-4.96,2.32q-2.04,2.36-2.04,5.72q0,3.04,2.04,5.28q2,2.28,4.96,2.28l4,0l4.08,0q1.8,0,3.2,1.52q1.32,1.6,1.32,3.48q0,2.24-1.3,3.64t-3.22,1.4l-15.08,0l0,2.48l15.08,0q3,0,5-2.08t2-5.44q0-3.04-2-5.28q-2.04-2.24-5-2.24l-4.08,0l-4,0q-1.84,0-3.16-1.6q-1.36-1.48-1.36-3.44q0-2.24,1.3-3.62t3.22-1.38z M156.728,46l-12.56,0l-2.48,0l0,28.12l2.48,0l0-14.08l12.56,0q3.04,0,5.04-2t2-5q0-2.72-2-4.84q-2.12-2.2-5.04-2.2z M156.728,57.56l-12.56,0l0-9.08l12.56,0q1.84,0,3.24,1.32q1.32,1.4,1.32,3.24q0,1.88-1.32,3.2q-1.4,1.32-3.24,1.32z M179.3616,46q-4.52,0-7.76,3.24q-3.28,3.28-3.28,7.8l0,6.04q0,4.44,3.28,7.72t7.76,3.28q4.52,0,7.8-3.28q3.24-3.24,3.24-7.72l0-6.04q0-4.56-3.24-7.8t-7.8-3.24z M187.9216,57.04l0,6.04q0,3.64-2.56,6.12q-2.52,2.4-6,2.4t-5.96-2.4q-2.56-2.48-2.56-6.12l0-6.04q0-3.36,2.56-6q2.56-2.56,5.96-2.56q3.36,0,6,2.56q2.56,2.64,2.56,6z M213.5952,48.44l-18.04,25.6l22.56,0l0-2l-18.04,0l18.04-26.08l-22.08,0l0,2.48l17.56,0z M240.6688,48.44l-18.04,25.6l22.56,0l0-2l-18.04,0l18.04-26.08l-22.08,0l0,2.48l17.56,0z"/><path fill="#" d=""/></svg>
